<?xml version="1.0" standalone="no"?>
<svg viewBox="0 0 200 200" xmlns="http://www.w3.org/2000/svg">
  <path fill="#EFA87B" d="M33.8,-58.9C43.1,-53.1,49.6,-42.8,56.1,-32.2C62.5,-21.6,68.9,-10.8,64.2,-2.7C59.4,5.3,43.5,10.6,34.6,16.9C25.7,23.2,23.7,30.5,19.1,41.1C14.5,51.8,7.3,66,-4.4,73.5C-16,81,-31.9,82,-36.1,71C-40.3,60.1,-32.8,37.4,-39.2,23.5C-45.6,9.7,-66,4.9,-74,-4.6C-82,-14.1,-77.6,-28.2,-70.1,-40.2C-62.7,-52.2,-52.1,-62,-39.9,-66.2C-27.7,-70.3,-13.8,-68.6,-0.8,-67.2C12.2,-65.8,24.4,-64.7,33.8,-58.9Z" transform="translate(100 100)" />
</svg>
